<svg aria-hidden="true" style="position: absolute; width: 0; height: 0; overflow: hidden;" version="1.1" xmlns="http://www.w3.org/2000/svg" xmlns:xlink="http://www.w3.org/1999/xlink">
<defs>
    <symbol id="icon-user" viewBox="0 0 20 28">
        <path d="M20 21.859c0 2.281-1.5 4.141-3.328 4.141h-13.344c-1.828 0-3.328-1.859-3.328-4.141 0-4.109 1.016-8.859 5.109-8.859 1.266 1.234 2.984 2 4.891 2s3.625-0.766 4.891-2c4.094 0 5.109 4.75 5.109 8.859zM16 8c0 3.313-2.688 6-6 6s-6-2.688-6-6 2.688-6 6-6 6 2.688 6 6z"></path>
    </symbol>
    <symbol id="icon-chevron-select" viewBox="0 0 32 32">
        <path stroke-linejoin="round" stroke-linecap="round" stroke-miterlimit="4" stroke-width="3" d="M8 12l8 8 8-8"></path>
    </symbol>
    <symbol id="icon-chevron" viewBox="0 0 32 32">
        <path d="M14.133 16.946c-0.125-0.124-0.224-0.271-0.292-0.434s-0.103-0.337-0.103-0.513 0.035-0.35 0.103-0.513c0.068-0.163 0.167-0.31 0.292-0.434l6.12-6.107c0.125-0.124 0.224-0.271 0.292-0.434s0.103-0.337 0.103-0.513-0.035-0.35-0.103-0.513c-0.068-0.162-0.167-0.31-0.292-0.434-0.25-0.248-0.588-0.388-0.94-0.388s-0.69 0.139-0.94 0.388l-6.12 6.12c-0.749 0.75-1.17 1.767-1.17 2.827s0.421 2.077 1.17 2.827l6.12 6.12c0.248 0.246 0.583 0.385 0.933 0.387 0.175 0.001 0.349-0.033 0.512-0.099s0.31-0.164 0.435-0.288c0.125-0.124 0.224-0.271 0.292-0.434s0.103-0.337 0.103-0.513c0-0.176-0.035-0.35-0.103-0.513s-0.167-0.31-0.292-0.434l-6.12-6.107z"></path>
    </symbol>
    <symbol id="icon-phone" viewBox="0 0 32 32">
        <path stroke-linejoin="round" stroke-linecap="round" stroke-miterlimit="4" stroke-width="2.6667" d="M29.33 22.56v4c0.002 0.371-0.075 0.739-0.223 1.079s-0.367 0.646-0.641 0.897c-0.274 0.251-0.597 0.442-0.948 0.561s-0.725 0.163-1.094 0.13c-4.103-0.446-8.044-1.848-11.507-4.093-3.222-2.047-5.953-4.779-8-8-2.253-3.478-3.656-7.439-4.093-11.56-0.033-0.369 0.010-0.74 0.129-1.091s0.308-0.673 0.558-0.947c0.25-0.273 0.553-0.492 0.892-0.641s0.705-0.227 1.075-0.227h4c0.647-0.006 1.274 0.223 1.765 0.645s0.811 1.008 0.902 1.649c0.169 1.28 0.482 2.537 0.933 3.747 0.179 0.477 0.218 0.996 0.112 1.495s-0.353 0.956-0.712 1.319l-1.693 1.693c1.898 3.338 4.662 6.102 8 8l1.693-1.693c0.363-0.359 0.82-0.605 1.319-0.712s1.017-0.067 1.494 0.112c1.21 0.451 2.467 0.764 3.747 0.933 0.648 0.091 1.239 0.418 1.662 0.917s0.647 1.136 0.631 1.79z"></path>
    </symbol>
    <symbol id="icon-filter" viewBox="0 0 32 32">
        <path stroke-linejoin="round" stroke-linecap="round" stroke-miterlimit="4" stroke-width="3.4286" d="M29.332 4h-26.667l10.667 12.613v8.72l5.333 2.667v-11.387l10.667-12.613z"></path>
    </symbol>
    <symbol id="icon-pharmacy" viewBox="0 0 32 32">
        <path d="M27.467 10.437c-4.255-4.256-8.877 0-8.877 0v0.725h-1.085v-0.746c1.502-0.599 2.569-2.062 2.569-3.78 0-2.254-1.826-4.075-4.076-4.075-2.252 0-4.076 1.821-4.076 4.075 0 1.678 1.013 3.114 2.46 3.74v0.786h-0.977v-0.725c0 0-4.62-4.256-8.875 0 0 0-2.717 1.815-4.53 0 0 0 0.182 5.435 6.703 5.435 0 0 2.875 0.546 6.702-1.22v-1.089h0.977v0.994h0.709l0.192 3.838c-2.222-0.109-3.928-0.656-3.925-1.312 0.004-0.56 1.244-1.022 2.98-1.205l0.001-0.222c-2.143 0.191-3.699 0.746-3.704 1.42-0.004 0.622 1.303 1.161 3.175 1.413-1.406 0.227-2.362 0.649-2.362 1.14 0 0.529 1.089 0.981 2.657 1.193-1.29 0.192-2.173 0.577-2.178 1.021-0.004 0.483 1 0.902 2.441 1.099-1.152 0.176-1.941 0.522-1.941 0.92 0 0.415 0.845 0.767 2.063 0.937-0.896 0.147-1.506 0.424-1.506 0.734 0 0.365 0.783 0.673 1.89 0.8-0.69 0.122-1.162 0.327-1.162 0.577 0 0.338 0.879 0.624 2.030 0.676l0.093 1.853h0.593l0.064-1.853c1.162-0.050 2.054-0.33 2.054-0.676 0-0.263-0.5-0.478-1.248-0.594 1.031-0.135 1.753-0.43 1.753-0.78 0-0.304-0.54-0.569-1.379-0.723 1.273-0.167 2.158-0.529 2.158-0.955 0-0.392-0.737-0.732-1.861-0.913 1.39-0.182 2.359-0.581 2.361-1.052 0.002-0.459-0.916-0.854-2.247-1.062 1.606-0.21 2.727-0.668 2.727-1.204 0-0.499-0.931-0.929-2.347-1.151 1.737-0.243 2.937-0.745 2.942-1.335 0.002-0.693-1.635-1.283-3.866-1.486v0.238c1.769 0.191 3.042 0.678 3.038 1.243-0.002 0.639-1.627 1.162-3.76 1.261l0.134-3.844h0.559v-0.992h1.083v1.089c3.829 1.766 6.702 1.22 6.702 1.22 6.52 0 6.703-5.435 6.703-5.435-1.815 1.816-4.532 0.001-4.532 0.001zM12.077 19.637c0-0.481 1.064-0.894 2.561-1.060l0.658 0.040 0.106 2.139c-1.888-0.095-3.325-0.557-3.325-1.118zM12.492 21.854c0.002-0.434 0.972-0.797 2.326-0.938v-0.010l0.592 0.040 0.097 1.932c-1.71-0.090-3.019-0.517-3.015-1.024zM12.923 23.866c0-0.381 0.85-0.708 2.044-0.835v-0.019l0.55 0.034 0.085 1.705c-1.515-0.070-2.678-0.435-2.678-0.885zM13.393 25.54c0-0.307 0.675-0.566 1.624-0.679l0.591 0.037 0.069 1.368c-1.285-0.037-2.284-0.349-2.284-0.727zM14.037 26.916c0-0.242 0.525-0.449 1.269-0.535l0.377 0.017 0.054 1.099c-0.967-0.052-1.7-0.291-1.7-0.581zM18.175 26.916c0 0.285-0.725 0.529-1.679 0.579l0.039-1.104 0.287-0.022c0.79 0.077 1.353 0.295 1.353 0.547zM18.584 25.54c0 0.351-0.877 0.649-2.045 0.722l0.047-1.358 0.466-0.025c0.894 0.117 1.532 0.367 1.532 0.661zM19.263 23.866c0 0.411-0.972 0.752-2.292 0.864l-0.050-0.007-0.005 0.012-0.325 0.021 0.060-1.697 0.559-0.025c1.193 0.126 2.052 0.443 2.052 0.833zM19.682 21.896c0 0.514-1.314 0.923-3.027 0.986l0.069-1.937 0.587-0.033v0.011c1.384 0.152 2.378 0.533 2.371 0.974zM17.537 18.582c1.487 0.166 2.553 0.574 2.553 1.054 0 0.569-1.454 1.031-3.36 1.121l0.075-2.134 0.732-0.041zM16.131 7.966c-0.783 0-1.413-0.632-1.413-1.412 0-0.781 0.63-1.414 1.413-1.414 0.778 0 1.41 0.633 1.41 1.414 0 0.78-0.632 1.412-1.41 1.412z"></path>
    </symbol>
    <symbol id="icon-location" viewBox="0 0 32 32">
        <path d="M16 0c-5.523 0-10 4.477-10 10 0 10 10 22 10 22s10-12 10-22c0-5.523-4.477-10-10-10zM16 16.125c-3.383 0-6.125-2.742-6.125-6.125s2.742-6.125 6.125-6.125 6.125 2.742 6.125 6.125-2.742 6.125-6.125 6.125zM12.125 10c0-2.14 1.735-3.875 3.875-3.875s3.875 1.735 3.875 3.875c0 2.14-1.735 3.875-3.875 3.875s-3.875-1.735-3.875-3.875z"></path>
    </symbol>
    <symbol id="icon-facebook" viewBox="0 0 32 32">
        <path d="M19 6h5v-6h-5c-3.86 0-7 3.14-7 7v3h-4v6h4v16h6v-16h5l1-6h-6v-3c0-0.542 0.458-1 1-1z"></path>
    </symbol>
    <symbol id="icon-instagram" viewBox="0 0 32 32">
        <path d="M16 2.881c4.275 0 4.781 0.019 6.462 0.094 1.563 0.069 2.406 0.331 2.969 0.55 0.744 0.288 1.281 0.638 1.837 1.194 0.563 0.563 0.906 1.094 1.2 1.838 0.219 0.563 0.481 1.412 0.55 2.969 0.075 1.688 0.094 2.194 0.094 6.463s-0.019 4.781-0.094 6.463c-0.069 1.563-0.331 2.406-0.55 2.969-0.288 0.744-0.637 1.281-1.194 1.837-0.563 0.563-1.094 0.906-1.837 1.2-0.563 0.219-1.413 0.481-2.969 0.55-1.688 0.075-2.194 0.094-6.463 0.094s-4.781-0.019-6.463-0.094c-1.563-0.069-2.406-0.331-2.969-0.55-0.744-0.288-1.281-0.637-1.838-1.194-0.563-0.563-0.906-1.094-1.2-1.837-0.219-0.563-0.481-1.413-0.55-2.969-0.075-1.688-0.094-2.194-0.094-6.463s0.019-4.781 0.094-6.463c0.069-1.563 0.331-2.406 0.55-2.969 0.288-0.744 0.638-1.281 1.194-1.838 0.563-0.563 1.094-0.906 1.838-1.2 0.563-0.219 1.412-0.481 2.969-0.55 1.681-0.075 2.188-0.094 6.463-0.094zM16 0c-4.344 0-4.887 0.019-6.594 0.094-1.7 0.075-2.869 0.35-3.881 0.744-1.056 0.412-1.95 0.956-2.837 1.85-0.894 0.888-1.438 1.781-1.85 2.831-0.394 1.019-0.669 2.181-0.744 3.881-0.075 1.713-0.094 2.256-0.094 6.6s0.019 4.887 0.094 6.594c0.075 1.7 0.35 2.869 0.744 3.881 0.413 1.056 0.956 1.95 1.85 2.837 0.887 0.887 1.781 1.438 2.831 1.844 1.019 0.394 2.181 0.669 3.881 0.744 1.706 0.075 2.25 0.094 6.594 0.094s4.888-0.019 6.594-0.094c1.7-0.075 2.869-0.35 3.881-0.744 1.050-0.406 1.944-0.956 2.831-1.844s1.438-1.781 1.844-2.831c0.394-1.019 0.669-2.181 0.744-3.881 0.075-1.706 0.094-2.25 0.094-6.594s-0.019-4.887-0.094-6.594c-0.075-1.7-0.35-2.869-0.744-3.881-0.394-1.063-0.938-1.956-1.831-2.844-0.887-0.887-1.781-1.438-2.831-1.844-1.019-0.394-2.181-0.669-3.881-0.744-1.712-0.081-2.256-0.1-6.6-0.1v0z"></path>
        <path d="M16 7.781c-4.537 0-8.219 3.681-8.219 8.219s3.681 8.219 8.219 8.219 8.219-3.681 8.219-8.219c0-4.537-3.681-8.219-8.219-8.219zM16 21.331c-2.944 0-5.331-2.387-5.331-5.331s2.387-5.331 5.331-5.331c2.944 0 5.331 2.387 5.331 5.331s-2.387 5.331-5.331 5.331z"></path>
        <path d="M26.462 7.456c0 1.060-0.859 1.919-1.919 1.919s-1.919-0.859-1.919-1.919c0-1.060 0.859-1.919 1.919-1.919s1.919 0.859 1.919 1.919z"></path>
    </symbol>
    <symbol id="icon-youtube" viewBox="0 0 32 32">
        <path d="M31.681 9.6c0 0-0.313-2.206-1.275-3.175-1.219-1.275-2.581-1.281-3.206-1.356-4.475-0.325-11.194-0.325-11.194-0.325h-0.012c0 0-6.719 0-11.194 0.325-0.625 0.075-1.987 0.081-3.206 1.356-0.963 0.969-1.269 3.175-1.269 3.175s-0.319 2.588-0.319 5.181v2.425c0 2.587 0.319 5.181 0.319 5.181s0.313 2.206 1.269 3.175c1.219 1.275 2.819 1.231 3.531 1.369 2.563 0.244 10.881 0.319 10.881 0.319s6.725-0.012 11.2-0.331c0.625-0.075 1.988-0.081 3.206-1.356 0.962-0.969 1.275-3.175 1.275-3.175s0.319-2.587 0.319-5.181v-2.425c-0.006-2.588-0.325-5.181-0.325-5.181zM12.694 20.15v-8.994l8.644 4.513-8.644 4.481z"></path>
    </symbol>
    <symbol id="icon-google" viewBox="0 0 32 32">
        <path fill="#4285f4" style="fill: var(--color1, #4285f4)" d="M31.619 16.299c0-1.311-0.106-2.268-0.337-3.26h-14.971v5.917h8.787c-0.177 1.471-1.134 3.685-3.26 5.173l-0.030 0.198 4.733 3.667 0.328 0.033c3.012-2.782 4.748-6.874 4.748-11.729z"></path>
        <path fill="#34a853" style="fill: var(--color2, #34a853)" d="M16.311 31.89c4.305 0 7.919-1.417 10.559-3.862l-5.032-3.898c-1.346 0.939-3.154 1.595-5.528 1.595-4.217 0-7.795-2.781-9.071-6.626l-0.187 0.016-4.922 3.809-0.064 0.179c2.622 5.209 8.008 8.788 14.244 8.788z"></path>
        <path fill="#fbbc05" style="fill: var(--color3, #fbbc05)" d="M7.24 19.099c-0.337-0.992-0.531-2.055-0.531-3.154s0.195-2.161 0.514-3.154l-0.009-0.211-4.984-3.87-0.163 0.078c-1.081 2.161-1.701 4.589-1.701 7.158s0.62 4.996 1.701 7.157l5.173-4.004z"></path>
        <path fill="#eb4335" style="fill: var(--color4, #eb4335)" d="M16.311 6.165c2.994 0 5.014 1.293 6.165 2.374l4.5-4.394c-2.764-2.569-6.36-4.146-10.665-4.146-6.236 0-11.622 3.579-14.244 8.787l5.156 4.004c1.293-3.845 4.872-6.626 9.089-6.626z"></path>
    </symbol>
</defs>
</svg>
